<svg xmlns="http://www.w3.org/2000/svg" width="147" height="51" viewBox="0 0 147 51" fill="none">
<path fill-rule="evenodd" clip-rule="evenodd" d="M33 16H18V7.9968L25.4994 1L33 7.9968V16Z" fill="#ec642c"/>
<path fill-rule="evenodd" clip-rule="evenodd" d="M0 7.9968V16H15V7.9968L7.5 1L0 7.9968Z" fill="#ec642c"/>
<path fill-rule="evenodd" clip-rule="evenodd" d="M51 16H36V7.9968L43.4994 1L51 7.9968V16Z" fill="#ec642c"/>
<path fill-rule="evenodd" clip-rule="evenodd" d="M72.252 9.5644V11.581C71.8842 12.1144 70.7344 12.8098 69.2513 12.8098C66.0322 12.8098 64.0664 10.8046 64.0664 7.9648C64.0664 5.137 66.2393 3.1084 69.2513 3.1084C70.7921 3.1084 71.7229 3.445 72.0449 3.619L71.1712 5.6584C70.8724 5.3458 70.2517 4.9864 69.2632 4.9864C67.6188 4.9864 66.6416 6.157 66.6416 7.8376V7.8604V7.8724C66.6416 9.6922 67.9176 10.9318 69.4007 10.9318C70.6885 10.9318 71.7229 10.2832 72.252 9.5644Z" fill="#ffffff"/>
<path fill-rule="evenodd" clip-rule="evenodd" d="M76.2096 8.78785H78.4521L77.5665 6.09925L77.3481 5.25265L77.0839 6.09925L76.2096 8.78785ZM76.8309 2.73745C76.106 1.33525 75.6347 0.546845 75.1175 0.106445H77.5665L78.0492 2.73745H76.8309ZM81.7855 11.396C81.97 11.8826 82.1991 12.3344 82.533 12.6008H79.2561C79.371 12.3578 79.4638 12.0794 79.3948 11.801L79.0383 10.6424H75.5889L75.2324 11.6738L75.2092 11.7314C75.1175 12.0332 75.2092 12.3344 75.3359 12.6008H72.5078C72.9333 12.3002 73.1291 11.6852 73.3589 11.0594L75.7501 4.20925C75.8418 3.88525 75.7037 3.53725 75.624 3.32845H79.3829C79.2561 3.57205 79.1758 3.86185 79.2454 4.15105L81.7855 11.396Z" fill="#ffffff"/>
<path fill-rule="evenodd" clip-rule="evenodd" d="M89.614 5.6007C89.1652 5.2533 88.4296 5.1489 87.7738 5.1489H87.0846V5.1837V10.7469C87.0846 11.4081 87.1882 12.1497 87.5328 12.6015H84.3369C84.682 12.1497 84.7856 11.4081 84.7856 10.7469V5.1837V5.1489H83.5661C82.9109 5.1489 82.1753 5.2533 81.7266 5.6007L82.3128 3.3291L90.1996 3.3405L90.2115 3.3291L89.614 5.6007Z" fill="#ffffff"/>
<path fill-rule="evenodd" clip-rule="evenodd" d="M95.5364 10.7807C96.5826 10.7807 97.7092 10.5257 98.1574 10.1321L97.4795 12.6005H90.9609C91.3055 12.1487 91.4085 11.4071 91.4085 10.7459V5.18272C91.4085 4.52152 91.3055 3.77992 90.9609 3.32812H97.8818L97.295 5.59973C96.8469 5.25233 96.1113 5.14793 95.456 5.14793H93.7087V5.18272V6.97913H96.4446L95.8584 9.25072C95.4096 8.90332 94.674 8.79892 94.0188 8.79892H93.7087V10.7459V10.7807H95.5364Z" fill="#ffffff"/>
<path fill-rule="evenodd" clip-rule="evenodd" d="M102.538 10.8623C104.067 10.8623 105.136 9.85373 105.171 7.92953C105.171 5.97113 103.976 5.06693 102.481 5.06693H102.021V5.18273V10.7465V10.8623H102.538ZM102.722 3.32812C105.746 3.32812 107.746 5.14852 107.746 7.96432C107.746 10.7345 105.516 12.6005 102.722 12.6005H99.2734C99.6186 12.1493 99.7222 11.4071 99.7222 10.7465V5.18272C99.7222 4.52213 99.6186 3.77992 99.2734 3.32812H102.722Z" fill="#ffffff"/>
<path fill-rule="evenodd" clip-rule="evenodd" d="M112.349 7.5477C113.303 7.5477 113.958 7.0959 113.958 6.3309C113.97 5.6121 113.568 5.0673 112.498 5.0673H111.912V5.1837V7.5477H112.349ZM117.499 12.6015H115.246C114.464 12.2649 112.579 10.0287 111.958 8.4753L111.912 8.4291V10.7469C111.912 11.4081 112.015 12.1497 112.361 12.6015H109.164C109.509 12.1497 109.612 11.4081 109.612 10.7469V5.1837C109.612 4.5225 109.509 3.7809 109.164 3.3291H112.797C114.936 3.3291 116.35 4.4301 116.35 6.1917C116.35 7.5363 115.453 8.3247 114.556 8.7537C115.085 9.9705 116.786 12.2187 117.499 12.6015Z" fill="#ffffff"/>
<path fill-rule="evenodd" clip-rule="evenodd" d="M120.971 8.78753H123.214L122.328 6.09893L122.11 5.25233L121.846 6.09893L120.971 8.78753ZM126.547 11.3957C126.732 11.8823 126.961 12.3341 127.295 12.6005H124.018C124.133 12.3575 124.226 12.0791 124.157 11.8007L123.8 10.6421H120.351L119.994 11.6735L119.971 11.7311C119.88 12.0329 119.971 12.3341 120.098 12.6005H117.27C117.695 12.2999 117.891 11.6849 118.121 11.0591L120.512 4.20893C120.604 3.88493 120.465 3.53693 120.386 3.32812H124.145C124.018 3.57172 123.937 3.86152 124.007 4.15073L126.547 11.3957Z" fill="#ffffff"/>
<path fill-rule="evenodd" clip-rule="evenodd" d="M67.8378 23.3819C68.9067 23.3819 69.4703 22.9877 69.4703 22.3391C69.4703 21.6197 68.9763 21.1793 68.2288 21.1793H67.0564V23.2661V23.3819H67.8378ZM67.0564 17.7023V19.5917H67.7461C68.5049 19.5917 69.0679 19.3367 69.0679 18.5369C69.0679 17.9573 68.6543 17.5865 67.8955 17.5865H67.0564V17.7023ZM71.7122 22.3619C71.7122 24.0773 70.241 25.1201 67.9526 25.1201H64.3086C64.6532 24.6689 64.7567 23.9267 64.7567 23.2661V17.7023C64.7567 17.0417 64.6532 16.2995 64.3086 15.8477H68.2859C70.2291 15.8477 71.3444 16.6361 71.3444 18.1193C71.3444 19.0355 70.7927 19.7309 70.0684 20.1479C71.2063 20.5655 71.7122 21.4115 71.7122 22.3619Z" fill="#ffffff"/>
<path fill-rule="evenodd" clip-rule="evenodd" d="M75.6783 21.3071H77.9208L77.0353 18.6185L76.8168 17.7719L76.5526 18.6185L75.6783 21.3071ZM81.2542 23.9153C81.4387 24.4019 81.6678 24.8537 82.0017 25.1201H78.7249C78.8397 24.8771 78.9326 24.5987 78.8635 24.3203L78.5071 23.1617H75.0576L74.7011 24.1931L74.6779 24.2507C74.5863 24.5525 74.6779 24.8537 74.8047 25.1201H71.9766C72.4021 24.8195 72.5979 24.2045 72.8276 23.5787L75.2189 16.7285C75.3105 16.4045 75.1725 16.0565 75.0927 15.8477H78.8516C78.7249 16.0913 78.6445 16.3811 78.7142 16.6703L81.2542 23.9153Z" fill="#ffffff"/>
<path fill-rule="evenodd" clip-rule="evenodd" d="M85.958 20.0663C86.9126 20.0663 87.5673 19.6145 87.5673 18.8495C87.5792 18.1307 87.1769 17.5859 86.1074 17.5859H85.5218V17.7023V20.0663H85.958ZM91.1084 25.1201H88.8552C88.0738 24.7835 86.1884 22.5473 85.567 20.9939L85.5218 20.9477V23.2655C85.5218 23.9267 85.6248 24.6683 85.9699 25.1201H82.7734C83.1186 24.6683 83.2216 23.9267 83.2216 23.2655V17.7023C83.2216 17.0411 83.1186 16.2995 82.7734 15.8477H86.4062C88.5451 15.8477 89.9592 16.9487 89.9592 18.7103C89.9592 20.0549 89.0623 20.8433 88.1654 21.2723C88.6945 22.4891 90.3954 24.7373 91.1084 25.1201Z" fill="#ffffff"/>
<path fill-rule="evenodd" clip-rule="evenodd" d="M99.5371 22.083V24.0996C99.1693 24.633 98.0195 25.3284 96.5364 25.3284C93.3173 25.3284 91.3516 23.3232 91.3516 20.4834C91.3516 17.6556 93.5238 15.627 96.5364 15.627C98.0773 15.627 99.0081 15.9636 99.33 16.1376L98.4564 18.177C98.1576 17.8644 97.5369 17.505 96.5483 17.505C94.904 17.505 93.9267 18.6756 93.9267 20.3562V20.379V20.391C93.9267 22.2108 95.2027 23.4504 96.6858 23.4504C97.9737 23.4504 99.0081 22.8018 99.5371 22.083Z" fill="#ffffff"/>
<path fill-rule="evenodd" clip-rule="evenodd" d="M105.228 23.3003C106.274 23.3003 107.401 23.0453 107.849 22.6517L107.171 25.1201H100.652C100.998 24.6683 101.1 23.9267 101.1 23.2655V17.7023C101.1 17.0411 100.998 16.2995 100.652 15.8477H107.573L106.987 18.1193C106.538 17.7719 105.803 17.6675 105.147 17.6675H103.4V17.7023V19.4987H106.136L105.55 21.7703C105.102 21.4229 104.366 21.3185 103.71 21.3185H103.4V23.2655V23.3003H105.228Z" fill="#ffffff"/>
<path fill-rule="evenodd" clip-rule="evenodd" d="M113.035 23.3003C114.081 23.3003 115.207 23.0453 115.656 22.6517L114.978 25.1201H108.965C109.309 24.6683 109.413 23.9267 109.413 23.2655V17.7023C109.413 17.0411 109.309 16.2995 108.965 15.8477H112.161C111.816 16.2995 111.713 17.0411 111.713 17.7023V23.2655V23.3003H113.035Z" fill="#ffffff"/>
<path fill-rule="evenodd" clip-rule="evenodd" d="M122.28 23.1154C122.66 22.6984 123.188 21.8752 123.188 20.6932C123.188 19.2322 122.303 17.737 120.706 17.5522C120.211 17.494 119.786 17.6098 119.486 17.83C119.107 18.2356 118.544 19.0474 118.544 20.2756C118.544 21.6898 119.464 23.185 121.061 23.3938C121.556 23.4628 121.981 23.3356 122.28 23.1154ZM120.854 25.3174C118.05 25.3174 115.957 23.1964 115.957 20.4838C115.957 17.7724 118.05 15.6514 120.854 15.6514C123.671 15.6514 125.764 17.7724 125.764 20.4838C125.764 23.1964 123.671 25.3174 120.854 25.3174Z" fill="#ffffff"/>
<path fill-rule="evenodd" clip-rule="evenodd" d="M135.595 23.6021C135.629 24.1697 135.744 24.7493 136.032 25.1201H133.755L129.972 20.3795L129.593 19.7189V23.2655C129.593 23.9267 129.697 24.6683 130.042 25.1201H127.179C127.501 24.7031 127.604 24.0419 127.627 23.4281L127.616 17.0645L126.719 15.8477H129.34L133.249 20.6579L133.606 21.2375L133.617 17.4701C133.594 16.8797 133.479 16.2533 133.169 15.8477H136.032C135.71 16.2647 135.607 16.9259 135.583 17.5397L135.595 23.6021Z" fill="#ffffff"/>
<mask id="mask0_41_2170" style="mask-type:alpha" maskUnits="userSpaceOnUse" x="136" y="15" width="11" height="11" fill="#ffffff">
<path fill-rule="evenodd" clip-rule="evenodd" d="M136.801 15.8477H146.826V25.1201H136.801V15.8477Z" fill="#ffffff"/>
</mask>
<g mask="url(#mask0_41_2170)">
<path fill-rule="evenodd" clip-rule="evenodd" d="M140.503 21.3071H142.745L141.859 18.6185L141.641 17.7719L141.377 18.6185L140.503 21.3071ZM146.079 23.9153C146.263 24.4019 146.493 24.8537 146.827 25.1201H143.55C143.665 24.8771 143.757 24.5987 143.688 24.3203L143.331 23.1617H139.882L139.525 24.1931L139.502 24.2507C139.41 24.5525 139.502 24.8537 139.629 25.1201H136.801C137.226 24.8195 137.422 24.2045 137.652 23.5787L140.043 16.7285C140.135 16.4045 139.997 16.0565 139.917 15.8477H143.676C143.55 16.0913 143.469 16.3811 143.538 16.6703L146.079 23.9153Z" fill="#ffffff"/>
</g>
<path fill-rule="evenodd" clip-rule="evenodd" d="M68.8606 35.8188C69.9069 35.8188 71.0335 35.5638 71.4816 35.1702L70.8037 37.6386H64.2852C64.6297 37.1868 64.7333 36.4452 64.7333 35.784V30.2208C64.7333 29.5596 64.6297 28.818 64.2852 28.3662H71.2061L70.6198 30.6378C70.1711 30.2904 69.4355 30.186 68.7803 30.186H67.0329V30.2208V32.0172H69.7688L69.1826 34.2888C68.7344 33.9414 67.9982 33.837 67.343 33.837H67.0329V35.784V35.8188H68.8606Z" fill="#ffffff"/>
<path fill-rule="evenodd" clip-rule="evenodd" d="M76.7591 32.4119C77.9661 33.2345 78.4601 33.8957 78.4601 35.0543C78.4601 36.5729 77.1496 37.8479 75.2302 37.8479C73.8388 37.8479 72.9193 37.3145 72.4706 36.8855V34.4051C72.9306 35.0429 74.2417 35.9813 75.31 35.9813C75.7706 35.9813 76.1729 35.8079 76.2646 35.5295C76.242 35.1935 75.9658 34.7879 75.4713 34.4399L74.3911 33.6749C73.3906 32.9681 72.3789 32.3075 72.3789 30.7307C72.3789 29.3171 73.621 28.1699 75.6093 28.1699C76.8395 28.1699 77.4257 28.4363 77.9322 28.6913V30.9395C77.5983 30.6263 76.6675 30.0353 75.4826 30.0353C75.0808 30.0353 74.6553 30.1979 74.5167 30.4529C74.5286 30.7661 74.7815 31.0553 75.1267 31.2995L76.7591 32.4119Z" fill="#ffffff"/>
<path fill-rule="evenodd" clip-rule="evenodd" d="M86.7853 30.6378C86.3371 30.2904 85.6015 30.186 84.9463 30.186H84.2559V30.2208V35.784C84.2559 36.4452 84.3595 37.1868 84.7046 37.6386H81.5087C81.8533 37.1868 81.9569 36.4452 81.9569 35.784V30.2208V30.186H80.738C80.0828 30.186 79.3472 30.2904 78.8984 30.6378L79.4847 28.3662L87.3721 28.3776L87.3834 28.3662L86.7853 30.6378Z" fill="#ffffff"/>
<path fill-rule="evenodd" clip-rule="evenodd" d="M96.5384 28.3662C96.1938 28.818 96.0902 29.5596 96.0902 30.2208V28.3662H96.5384ZM96.0789 34.3242C96.0789 36.4914 94.572 37.8246 92.5146 37.8246C89.6859 37.8246 88.4671 36.468 88.4671 34.2078V30.2208C88.4671 29.5596 88.3641 28.818 88.0195 28.3662H91.3303C90.9851 28.818 90.8703 29.5596 90.8703 30.2208V34.1964C90.8703 35.2626 91.4106 36.0042 92.5146 35.9928C93.1699 35.9928 94.1126 35.5992 94.1126 34.2198V30.2208C94.1126 29.5596 94.009 28.818 93.6645 28.3662H96.0902L96.0789 34.3242Z" fill="#ffffff"/>
<path fill-rule="evenodd" clip-rule="evenodd" d="M101.32 35.9004C102.849 35.9004 103.918 34.8918 103.953 32.9676C103.953 31.0092 102.757 30.105 101.262 30.105H100.802V30.2208V35.7846V35.9004H101.32ZM101.504 28.3662C104.527 28.3662 106.528 30.1866 106.528 33.0024C106.528 35.7726 104.297 37.6386 101.504 37.6386H98.0547C98.3993 37.1874 98.5028 36.4452 98.5028 35.7846V30.2208C98.5028 29.5602 98.3993 28.818 98.0547 28.3662H101.504Z" fill="#ffffff"/>
<path fill-rule="evenodd" clip-rule="evenodd" d="M110.692 35.785C110.692 36.4462 110.796 37.1878 111.141 37.6396H107.945C108.29 37.1878 108.393 36.4462 108.393 35.785V30.2218C108.393 29.5606 108.29 28.819 107.945 28.3672H111.141C110.796 28.819 110.692 29.5606 110.692 30.2218V35.785Z" fill="#ffffff"/>
<path fill-rule="evenodd" clip-rule="evenodd" d="M116.958 32.4119C118.165 33.2345 118.659 33.8957 118.659 35.0543C118.659 36.5729 117.348 37.8479 115.429 37.8479C114.038 37.8479 113.118 37.3145 112.67 36.8855V34.4051C113.129 35.0429 114.44 35.9813 115.509 35.9813C115.969 35.9813 116.372 35.8079 116.464 35.5295C116.441 35.1935 116.164 34.7879 115.67 34.4399L114.59 33.6749C113.589 32.9681 112.578 32.3075 112.578 30.7307C112.578 29.3171 113.82 28.1699 115.808 28.1699C117.038 28.1699 117.625 28.4363 118.131 28.6913V30.9395C117.797 30.6263 116.866 30.0353 115.681 30.0353C115.279 30.0353 114.854 30.1979 114.715 30.4529C114.727 30.7661 114.981 31.0553 115.325 31.2995L116.958 32.4119Z" fill="#ffffff"/>
<path fill-rule="evenodd" clip-rule="evenodd" d="M72.7816 48.3035C72.7816 48.9647 72.8852 49.7063 73.2298 50.1581H70.0339C70.3784 49.7063 70.4826 48.9647 70.4826 48.3035V46.4147H67.0564V48.3035C67.0564 48.9647 67.1599 49.7063 67.5045 50.1581H64.3086C64.6532 49.7063 64.7567 48.9647 64.7567 48.3035V42.7403C64.7567 42.0791 64.6532 41.3375 64.3086 40.8857H67.5045C67.1599 41.3375 67.0564 42.0791 67.0564 42.7403V44.5943H70.4826V42.7403C70.4826 42.0791 70.3784 41.3375 70.0339 40.8857H73.2298C72.8852 41.3375 72.7816 42.0791 72.7816 42.7403V48.3035Z" fill="#ffffff"/>
<path fill-rule="evenodd" clip-rule="evenodd" d="M77.7018 46.3451H79.9443L79.0587 43.6565L78.8403 42.8099L78.576 43.6565L77.7018 46.3451ZM83.2777 48.9533C83.4622 49.4399 83.6913 49.8917 84.0252 50.1581H80.7483C80.8632 49.9151 80.956 49.6367 80.887 49.3583L80.5305 48.1997H77.081L76.7246 49.2311L76.7013 49.2887C76.6097 49.5905 76.7013 49.8917 76.8281 50.1581H74C74.4255 49.8575 74.6207 49.2425 74.8511 48.6167L77.2423 41.7665C77.334 41.4425 77.1959 41.0945 77.1162 40.8857H80.8751C80.7483 41.1293 80.668 41.4191 80.7376 41.7083L83.2777 48.9533Z" fill="#ffffff"/>
<path fill-rule="evenodd" clip-rule="evenodd" d="M88.3267 48.4199C89.3961 48.4199 89.9591 48.0257 89.9591 47.3771C89.9591 46.6577 89.4646 46.2173 88.7171 46.2173H87.5452V48.3041V48.4199H88.3267ZM87.5452 42.7403V44.6297H88.235C88.9938 44.6297 89.5562 44.3747 89.5562 43.5749C89.5562 42.9953 89.1426 42.6245 88.3844 42.6245H87.5452V42.7403ZM92.201 47.3999C92.201 49.1153 90.7292 50.1581 88.4415 50.1581H84.7969C85.1415 49.7069 85.245 48.9647 85.245 48.3041V42.7403C85.245 42.0797 85.1415 41.3375 84.7969 40.8857H88.7754C90.7179 40.8857 91.8338 41.6741 91.8338 43.1573C91.8338 44.0735 91.2815 44.7689 90.5573 45.1859C91.6952 45.6035 92.201 46.4495 92.201 47.3999Z" fill="#ffffff"/>
<path fill-rule="evenodd" clip-rule="evenodd" d="M96.2634 48.3035C96.2634 48.9647 96.3669 49.7063 96.7115 50.1581H93.5156C93.8602 49.7063 93.9638 48.9647 93.9638 48.3035V42.7403C93.9638 42.0791 93.8602 41.3375 93.5156 40.8857H96.7115C96.3669 41.3375 96.2634 42.0791 96.2634 42.7403V48.3035Z" fill="#ffffff"/>
<path fill-rule="evenodd" clip-rule="evenodd" d="M105.367 43.1573C104.919 42.8099 104.184 42.7055 103.528 42.7055H102.838V42.7403V48.3035C102.838 48.9647 102.941 49.7063 103.287 50.1581H100.091C100.435 49.7063 100.539 48.9647 100.539 48.3035V42.7403V42.7055H99.3206C98.6648 42.7055 97.9292 42.8099 97.4805 43.1573L98.0673 40.8857L105.954 40.8971L105.965 40.8857L105.367 43.1573Z" fill="#ffffff"/>
<path fill-rule="evenodd" clip-rule="evenodd" d="M108.862 46.3451H111.104L110.219 43.6565L110 42.8099L109.736 43.6565L108.862 46.3451ZM114.438 48.9533C114.622 49.4399 114.851 49.8917 115.185 50.1581H111.908C112.023 49.9151 112.116 49.6367 112.047 49.3583L111.691 48.1997H108.241L107.885 49.2311L107.862 49.2887C107.77 49.5905 107.862 49.8917 107.988 50.1581H105.16C105.586 49.8575 105.781 49.2425 106.011 48.6167L108.402 41.7665C108.494 41.4425 108.356 41.0945 108.276 40.8857H112.035C111.908 41.1293 111.828 41.4191 111.898 41.7083L114.438 48.9533Z" fill="#ffffff"/>
<path fill-rule="evenodd" clip-rule="evenodd" d="M122.281 43.1573C121.833 42.8099 121.097 42.7055 120.441 42.7055H119.752V42.7403V48.3035C119.752 48.9647 119.856 49.7063 120.2 50.1581H117.004C117.349 49.7063 117.453 48.9647 117.453 48.3035V42.7403V42.7055H116.234C115.578 42.7055 114.843 42.8099 114.395 43.1573L114.98 40.8857L122.867 40.8971L122.879 40.8857L122.281 43.1573Z" fill="#ffffff"/>
<path fill-rule="evenodd" clip-rule="evenodd" d="M132.044 45.6492C131.699 46.1016 131.596 46.8432 131.596 47.5038C131.596 48.1992 131.711 48.5586 132.021 49.1958C131.745 49.5324 130.607 50.262 128.906 50.355L128.594 50.3664H128.561H128.537C125.353 50.3436 123.41 48.3498 123.41 45.5334V45.5214C123.41 42.6936 125.583 40.665 128.594 40.665C130.136 40.665 131.067 41.0016 131.389 41.1756L130.515 43.215C130.216 42.9024 129.595 42.543 128.606 42.543C126.963 42.543 125.985 43.7136 125.985 45.3942V45.417V45.429C125.985 47.2488 127.261 48.4884 128.744 48.4884C128.975 48.4884 129.204 48.4656 129.423 48.4314C129.423 47.3412 129.48 46.4142 129.147 45.6492H132.044Z" fill="#ffffff"/>
<path fill-rule="evenodd" clip-rule="evenodd" d="M137.885 48.3383C138.931 48.3383 140.057 48.0833 140.506 47.6897L139.827 50.1581H133.309C133.654 49.7063 133.757 48.9647 133.757 48.3035V42.7403C133.757 42.0791 133.654 41.3375 133.309 40.8857H140.229L139.643 43.1573C139.195 42.8099 138.459 42.7055 137.804 42.7055H136.056V42.7403V44.5367H138.792L138.207 46.8083C137.758 46.4609 137.022 46.3565 136.366 46.3565H136.056V48.3035V48.3383H137.885Z" fill="#ffffff"/>
<path fill-rule="evenodd" clip-rule="evenodd" d="M30.1672 18.9355H20.9758L18.2578 21.6757V30.9427L20.9758 33.6829H30.1672L32.8852 30.9427V21.6757L30.1672 18.9355Z" fill="#ec642c"/>
<path fill-rule="evenodd" clip-rule="evenodd" d="M30.1672 36.252H20.9758L18.2578 38.9922V48.2592L20.9758 50.9994H30.1672L32.8852 48.2592V38.9922L30.1672 36.252Z" fill="#ec642c"/>
<path fill-rule="evenodd" clip-rule="evenodd" d="M2.71801 18.9355L0 21.6763V30.9427L2.71801 33.6835H11.91L14.628 30.9427V21.6763L11.91 18.9355H2.71801Z" fill="#ec642c"/>
<path fill-rule="evenodd" clip-rule="evenodd" d="M2.71801 36.252L0 38.9922V48.2598L2.71801 50.9988H11.91L14.628 48.2598V38.9922L11.91 36.252H2.71801Z" fill="#ec642c"/>
<path fill-rule="evenodd" clip-rule="evenodd" d="M48.4289 18.9355H39.2375L36.5195 21.6757V30.9427L39.2375 33.6829H48.4289L51.1469 30.9427V21.6757L48.4289 18.9355Z" fill="#ec642c"/>
<path fill-rule="evenodd" clip-rule="evenodd" d="M48.4289 36.252H39.2375L36.5195 38.9922V48.2592L39.2375 50.9994H48.4289L51.1469 48.2592V38.9922L48.4289 36.252Z" fill="#ec642c"/>
</svg>